<mxfile host="app.diagrams.net" agent="Mozilla/5.0 (X11; Linux x86_64) AppleWebKit/537.36 (KHTML, like Gecko) Chrome/137.0.0.0 Safari/537.36" version="27.1.3">
  <diagram name="Page-1" id="t-D194edYIOOwukw2ibf">
    <mxGraphModel dx="831" dy="460" grid="1" gridSize="10" guides="1" tooltips="1" connect="1" arrows="1" fold="1" page="1" pageScale="1" pageWidth="850" pageHeight="1100" background="light-dark(#FFFFFF,#FFFFFF)" math="0" shadow="0">
      <root>
        <mxCell id="0" />
        <mxCell id="1" parent="0" />
        <mxCell id="40" value="" style="curved=1;startArrow=none;endArrow=block;exitX=0;exitY=0.88;entryX=0.5;entryY=0;" parent="1" edge="1">
          <mxGeometry relative="1" as="geometry">
            <Array as="points">
              <mxPoint x="1315" y="295" />
            </Array>
            <mxPoint x="1315" y="320" as="targetPoint" />
          </mxGeometry>
        </mxCell>
        <mxCell id="fnA7h3JSZ06yZRbq0D-7-54" value="" style="group;fillColor=#dae8fc;strokeColor=#6c8ebf;" parent="1" vertex="1" connectable="0">
          <mxGeometry x="90" y="40" width="720" height="330" as="geometry" />
        </mxCell>
        <mxCell id="fnA7h3JSZ06yZRbq0D-7-47" value="" style="rounded=0;whiteSpace=wrap;html=1;fillColor=#bac8d3;strokeColor=#23445d;" parent="fnA7h3JSZ06yZRbq0D-7-54" vertex="1">
          <mxGeometry width="720" height="330" as="geometry" />
        </mxCell>
        <mxCell id="fnA7h3JSZ06yZRbq0D-7-53" value="" style="group" parent="fnA7h3JSZ06yZRbq0D-7-54" vertex="1" connectable="0">
          <mxGeometry x="30" y="10" width="700" height="280" as="geometry" />
        </mxCell>
        <mxCell id="fnA7h3JSZ06yZRbq0D-7-42" value="Done / past publications&lt;br&gt;Research Group" style="shape=hexagon;perimeter=hexagonPerimeter2;whiteSpace=wrap;html=1;fixedSize=1;" parent="fnA7h3JSZ06yZRbq0D-7-53" vertex="1">
          <mxGeometry width="120" height="80" as="geometry" />
        </mxCell>
        <mxCell id="fnA7h3JSZ06yZRbq0D-7-43" value="File: _pages/publications.md" style="ellipse;whiteSpace=wrap;html=1;" parent="fnA7h3JSZ06yZRbq0D-7-53" vertex="1">
          <mxGeometry x="208" width="155" height="80" as="geometry" />
        </mxCell>
        <mxCell id="fnA7h3JSZ06yZRbq0D-7-52" value="" style="shape=flexArrow;endArrow=classic;startArrow=classic;html=1;rounded=0;exitX=1;exitY=0.5;exitDx=0;exitDy=0;entryX=0;entryY=0.5;entryDx=0;entryDy=0;" parent="fnA7h3JSZ06yZRbq0D-7-53" source="fnA7h3JSZ06yZRbq0D-7-42" target="fnA7h3JSZ06yZRbq0D-7-43" edge="1">
          <mxGeometry width="100" height="100" relative="1" as="geometry">
            <mxPoint x="120" y="220" as="sourcePoint" />
            <mxPoint x="220" y="120" as="targetPoint" />
          </mxGeometry>
        </mxCell>
        <mxCell id="fnA7h3JSZ06yZRbq0D-7-69" value="" style="endArrow=classic;html=1;rounded=0;exitX=0;exitY=0.75;exitDx=0;exitDy=0;" parent="fnA7h3JSZ06yZRbq0D-7-54" source="fnA7h3JSZ06yZRbq0D-7-44" target="fnA7h3JSZ06yZRbq0D-7-68" edge="1">
          <mxGeometry width="50" height="50" relative="1" as="geometry">
            <mxPoint x="270" y="200" as="sourcePoint" />
            <mxPoint x="320" y="150" as="targetPoint" />
          </mxGeometry>
        </mxCell>
        <mxCell id="fnA7h3JSZ06yZRbq0D-7-44" value="Files where content is extracted" style="rounded=1;whiteSpace=wrap;html=1;" parent="fnA7h3JSZ06yZRbq0D-7-54" vertex="1">
          <mxGeometry x="360" y="110" width="120" height="60" as="geometry" />
        </mxCell>
        <mxCell id="fnA7h3JSZ06yZRbq0D-7-48" value="" style="endArrow=classic;html=1;rounded=0;exitX=0.5;exitY=1;exitDx=0;exitDy=0;entryX=0.067;entryY=0.083;entryDx=0;entryDy=0;entryPerimeter=0;" parent="fnA7h3JSZ06yZRbq0D-7-54" source="fnA7h3JSZ06yZRbq0D-7-43" target="fnA7h3JSZ06yZRbq0D-7-44" edge="1">
          <mxGeometry width="50" height="50" relative="1" as="geometry">
            <mxPoint x="400" y="90" as="sourcePoint" />
            <mxPoint x="450" y="40" as="targetPoint" />
          </mxGeometry>
        </mxCell>
        <mxCell id="fnA7h3JSZ06yZRbq0D-7-51" value="" style="endArrow=classic;html=1;rounded=0;exitX=1;exitY=1;exitDx=0;exitDy=0;entryX=0.452;entryY=0;entryDx=0;entryDy=0;entryPerimeter=0;" parent="fnA7h3JSZ06yZRbq0D-7-54" source="fnA7h3JSZ06yZRbq0D-7-44" target="fnA7h3JSZ06yZRbq0D-7-46" edge="1">
          <mxGeometry width="50" height="50" relative="1" as="geometry">
            <mxPoint x="600" y="210" as="sourcePoint" />
            <mxPoint x="650" y="160" as="targetPoint" />
          </mxGeometry>
        </mxCell>
        <mxCell id="fnA7h3JSZ06yZRbq0D-7-68" value="Publications from ORCID (5 featured):&lt;br&gt;_data/research_themes.yml" style="ellipse;whiteSpace=wrap;html=1;" parent="fnA7h3JSZ06yZRbq0D-7-54" vertex="1">
          <mxGeometry x="20" y="220" width="170" height="80" as="geometry" />
        </mxCell>
        <mxCell id="fnA7h3JSZ06yZRbq0D-7-46" value="All MBTE published publications&lt;br&gt;_bibliography/mbte_publications.bib" style="ellipse;whiteSpace=wrap;html=1;" parent="fnA7h3JSZ06yZRbq0D-7-54" vertex="1">
          <mxGeometry x="450" y="220" width="217" height="80" as="geometry" />
        </mxCell>
        <mxCell id="fnA7h3JSZ06yZRbq0D-7-56" value="" style="group;fillColor=#dae8fc;strokeColor=#6c8ebf;" parent="1" vertex="1" connectable="0">
          <mxGeometry x="110" y="510" width="720" height="330" as="geometry" />
        </mxCell>
        <mxCell id="fnA7h3JSZ06yZRbq0D-7-57" value="" style="rounded=0;whiteSpace=wrap;html=1;fillColor=#bac8d3;strokeColor=#23445d;" parent="fnA7h3JSZ06yZRbq0D-7-56" vertex="1">
          <mxGeometry width="720" height="330" as="geometry" />
        </mxCell>
        <mxCell id="fnA7h3JSZ06yZRbq0D-7-58" value="" style="group" parent="fnA7h3JSZ06yZRbq0D-7-56" vertex="1" connectable="0">
          <mxGeometry y="10" width="700" height="290" as="geometry" />
        </mxCell>
        <mxCell id="fnA7h3JSZ06yZRbq0D-7-59" value="Ongoing projects&amp;nbsp;&lt;br&gt;Research Group &amp;amp;&lt;br&gt;Research Incubator" style="shape=hexagon;perimeter=hexagonPerimeter2;whiteSpace=wrap;html=1;fixedSize=1;" parent="fnA7h3JSZ06yZRbq0D-7-58" vertex="1">
          <mxGeometry width="120" height="80" as="geometry" />
        </mxCell>
        <mxCell id="fnA7h3JSZ06yZRbq0D-7-60" value="File: _pages/allprojects.md&lt;div&gt;File: _pages/synbio,md&lt;/div&gt;" style="ellipse;whiteSpace=wrap;html=1;" parent="fnA7h3JSZ06yZRbq0D-7-58" vertex="1">
          <mxGeometry x="208" width="155" height="80" as="geometry" />
        </mxCell>
        <mxCell id="fnA7h3JSZ06yZRbq0D-7-61" value="Files where content is extracted" style="rounded=1;whiteSpace=wrap;html=1;" parent="fnA7h3JSZ06yZRbq0D-7-58" vertex="1">
          <mxGeometry x="390" y="100" width="120" height="60" as="geometry" />
        </mxCell>
        <mxCell id="fnA7h3JSZ06yZRbq0D-7-64" value="" style="endArrow=classic;html=1;rounded=0;exitX=0.5;exitY=1;exitDx=0;exitDy=0;entryX=0.067;entryY=0.083;entryDx=0;entryDy=0;entryPerimeter=0;" parent="fnA7h3JSZ06yZRbq0D-7-58" source="fnA7h3JSZ06yZRbq0D-7-60" target="fnA7h3JSZ06yZRbq0D-7-61" edge="1">
          <mxGeometry width="50" height="50" relative="1" as="geometry">
            <mxPoint x="370" y="80" as="sourcePoint" />
            <mxPoint x="420" y="30" as="targetPoint" />
          </mxGeometry>
        </mxCell>
        <mxCell id="fnA7h3JSZ06yZRbq0D-7-67" value="" style="shape=flexArrow;endArrow=classic;startArrow=classic;html=1;rounded=0;exitX=1;exitY=0.5;exitDx=0;exitDy=0;entryX=0;entryY=0.5;entryDx=0;entryDy=0;" parent="fnA7h3JSZ06yZRbq0D-7-58" source="fnA7h3JSZ06yZRbq0D-7-59" target="fnA7h3JSZ06yZRbq0D-7-60" edge="1">
          <mxGeometry width="100" height="100" relative="1" as="geometry">
            <mxPoint x="120" y="220" as="sourcePoint" />
            <mxPoint x="220" y="120" as="targetPoint" />
          </mxGeometry>
        </mxCell>
        <mxCell id="fnA7h3JSZ06yZRbq0D-7-62" value="_data/project.yml" style="ellipse;whiteSpace=wrap;html=1;" parent="fnA7h3JSZ06yZRbq0D-7-56" vertex="1">
          <mxGeometry x="355" y="220" width="190" height="80" as="geometry" />
        </mxCell>
        <mxCell id="fnA7h3JSZ06yZRbq0D-7-65" value="" style="endArrow=classic;html=1;rounded=0;entryX=0.5;entryY=0;entryDx=0;entryDy=0;exitX=0.5;exitY=1;exitDx=0;exitDy=0;" parent="fnA7h3JSZ06yZRbq0D-7-56" source="fnA7h3JSZ06yZRbq0D-7-61" target="fnA7h3JSZ06yZRbq0D-7-62" edge="1">
          <mxGeometry width="50" height="50" relative="1" as="geometry">
            <mxPoint x="-10" y="230" as="sourcePoint" />
            <mxPoint x="40" y="180" as="targetPoint" />
          </mxGeometry>
        </mxCell>
      </root>
    </mxGraphModel>
  </diagram>
</mxfile>
